<svg xmlns="http://www.w3.org/2000/svg" width="30" height="31" viewBox="14 7 30 31" fill="none">
<g clip-path="url(#clip0_6146_28766)">
<path d="M34.2045 19.3579L21.6549 7.09065C21.5631 7.00098 21.4255 6.97473 21.3069 7.02504L14.1936 9.97565C14.0761 10.0238 14 10.1364 14 10.2611V34.7387C14 34.8634 14.0761 34.976 14.1936 35.0241L21.3069 37.9758C21.4255 38.025 21.5631 37.9988 21.6549 37.9091L27.3742 32.3185C27.4984 32.1971 27.4984 32.0013 27.3742 31.8799L24.6835 29.2498C24.5593 29.1284 24.359 29.1284 24.2348 29.2498L18.8735 34.4904C18.7135 34.6468 18.4405 34.5364 18.4405 34.3155V10.6854C18.4405 10.4645 18.7135 10.354 18.8735 10.5104L30.9611 22.326C31.0607 22.4233 31.0607 22.5797 30.9611 22.6771L29.1688 24.429C29.0446 24.5504 29.0446 24.7462 29.1688 24.8676L31.8595 27.4978C31.9837 27.6192 32.1839 27.6192 32.3081 27.4978L34.2045 25.6441C34.2638 25.5861 34.2974 25.5074 34.2974 25.4253V19.5799C34.2974 19.4979 34.2638 19.4191 34.2045 19.3612V19.3579Z" fill="#0564E6"/>
<path d="M22.338 25.6421L34.8876 37.9094C34.9794 37.999 35.117 38.0253 35.2356 37.975L42.3489 35.0233C42.4664 34.9751 42.5425 34.8625 42.5425 34.7378V10.2613C42.5425 10.1367 42.4664 10.024 42.3489 9.97589L35.2356 7.02528C35.117 6.97607 34.9794 7.00231 34.8876 7.0909L29.1683 12.6826C29.0441 12.804 29.0441 12.9998 29.1683 13.1212L31.859 15.7513C31.9832 15.8727 32.1835 15.8727 32.3076 15.7513L37.669 10.5107C37.829 10.3543 38.1019 10.4647 38.1019 10.6857V34.3157C38.1019 34.5366 37.829 34.6471 37.669 34.4907L25.5814 22.6751C25.4818 22.5778 25.4818 22.4214 25.5814 22.3241L27.3737 20.5721C27.4979 20.4507 27.4979 20.2549 27.3737 20.1335L24.683 17.5033C24.5588 17.3819 24.3585 17.3819 24.2344 17.5033L22.338 19.357C22.2787 19.415 22.2451 19.4937 22.2451 19.5758V25.4212C22.2451 25.5032 22.2787 25.582 22.338 25.6399V25.6421Z" fill="#1EB4F0"/>
</g>
<defs>
<clipPath id="clip0_6146_28766">
<rect width="30" height="31" fill="white" transform="translate(14 7)"/>
</clipPath>
</defs>
</svg>